{"title":"Hotel Transylvania 2 [2015] (No Cinavia) 1080p","uid":13240139,"size":3581374430,"categoryP":"video","categoryS":"hd___movies","magnet":"?xt=urn:btih:e117bdceedbd762c5aa064e1ebfd0395ef75eab8&amp;dn=Hotel+Transylvania+2+%5B2015%5D+%28No+Cinavia%29+1080p&amp;tr=udp%3A%2F%2Ftracker.leechers-paradise.org%3A6969&amp;tr=udp%3A%2F%2Fzer0day.ch%3A1337&amp;tr=udp%3A%2F%2Fopen.demonii.com%3A1337&amp;tr=udp%3A%2F%2Ftracker.coppersurfer.tk%3A6969&amp;tr=udp%3A%2F%2Fexodus.desync.com%3A6969","seeders":0,"leechers":1,"uploader":"AlienMethod","files":6,"time":1453044537,"description":"x246/mp4\r\n6-Channel AC3 (audio 1)\r\n2-Channel AAC (audio 2)\r\nCinavia Removed w/ CinExHD\r\nEnglish Subs\r\n\r\n&quot;Dracula and his friends try to bring out the monster in his half human, half \r\nvampire grandson in order to keep Mavis from leaving the hotel.&quot;\r\n\r\n\r\nVideo\r\nID : 1\r\nFormat : AVC\r\nFormat/Info : Advanced Video Codec\r\nFormat profile :   \r\nFormat settings, CABAC : Yes\r\nFormat settings, ReFrames : 4 frames\r\nCodec ID : avc1\r\nCodec ID/Info : Advanced Video Coding\r\nDuration : 1h 29mn\r\nBit rate : 4 500 Kbps\r\nMaximum bit rate : 28.1 Mbps\r\nWidth : 1 920 pixels\r\nHeight : 1 040 pixels\r\nDisplay aspect ratio : 1.85:1\r\nFrame rate mode : Constant\r\nFrame rate : 23.976 fps\r\nColor space : YUV\r\nChroma subsampling : 4:2:0\r\nBit depth : 8 bits\r\nScan type : Progressive\r\nBits/(Pixel*Frame) : 0.094\r\nStream size : 2.81 GiB (84%)\r\nTitle : Hotel Transylvania 2 (CinEx)_track1_und.h264\r\nWriting library : x264 core 148 r2638 7599210\r\nEncoded date : UTC 2016-01-16 22:05:10\r\nTagged date : UTC 2016-01-16 22:05:26\r\n\r\nAudio #1\r\nID : 2\r\nFormat : AC-3\r\nFormat/Info : Audio Coding 3\r\nMode extension : CM (complete main)\r\nFormat settings, Endianness : Big\r\nCodec ID : ac-3\r\nDuration : 1h 29mn\r\nBit rate mode : Constant\r\nBit rate : 640 Kbps\r\nChannel(s) : 6 channels\r\nChannel positions : Front: L C R, Side: L R, LFE\r\nSampling rate : 48.0 KHz\r\nBit depth : 16 bits\r\nCompression mode : Lossy\r\nStream size : 409 MiB (12%)\r\nTitle : Hotel Transylvania 2 (CinEx)_track2_und.ac3\r\nEncoded date : UTC 2016-01-16 22:05:22\r\nTagged date : UTC 2016-01-16 22:05:26\r\n\r\nAudio #2\r\nID : 3\r\nFormat : AAC\r\nFormat/Info : Advanced Audio Codec\r\nFormat profile : LC\r\nCodec ID : 40\r\nDuration : 1h 29mn\r\nBit rate mode : Variable\r\nBit rate : 204 Kbps\r\nMaximum bit rate : 255 Kbps\r\nChannel(s) : 2 channels\r\nChannel positions : Front: L R\r\nSampling rate : 48.0 KHz\r\nCompression mode : Lossy\r\nStream size : 130 MiB (4%)\r\nTitle : Hotel Transylvania 2 (CinEx)_track2_und_Output.m4a\r\nEncoded date : UTC 2016-01-16 22:05:25\r\nTagged date : UTC 2016-01-16 22:05:26","torrent":{"xt":"urn:btih:e117bdceedbd762c5aa064e1ebfd0395ef75eab8","amp;dn":"Hotel+Transylvania+2+%5B2015%5D+%28No+Cinavia%29+1080p","amp;tr":["udp%3A%2F%2Ftracker.leechers-paradise.org%3A6969","udp%3A%2F%2Fzer0day.ch%3A1337","udp%3A%2F%2Fopen.demonii.com%3A1337","udp%3A%2F%2Ftracker.coppersurfer.tk%3A6969","udp%3A%2F%2Fexodus.desync.com%3A6969"],"infoHash":"e117bdceedbd762c5aa064e1ebfd0395ef75eab8","infoHashBuffer":{"type":"Buffer","data":[225,23,189,206,237,189,118,44,90,160,100,225,235,253,3,149,239,117,234,184]},"announce":[],"urlList":[]}}